<?xml version="1.0" encoding="utf-8" standalone="no"?>
<!DOCTYPE svg PUBLIC "-//W3C//DTD SVG 1.1//EN"
  "http://www.w3.org/Graphics/SVG/1.1/DTD/svg11.dtd">
<!-- Created with matplotlib (https://matplotlib.org/) -->
<svg height="774.5877pt" version="1.1" viewBox="0 0 1322.785595 774.5877" width="1322.785595pt" xmlns="http://www.w3.org/2000/svg" xmlns:xlink="http://www.w3.org/1999/xlink">
 <metadata>
  <rdf:RDF xmlns:cc="http://creativecommons.org/ns#" xmlns:dc="http://purl.org/dc/elements/1.1/" xmlns:rdf="http://www.w3.org/1999/02/22-rdf-syntax-ns#">
   <cc:Work>
    <dc:type rdf:resource="http://purl.org/dc/dcmitype/StillImage"/>
    <dc:date>2021-02-07T21:06:09.258179</dc:date>
    <dc:format>image/svg+xml</dc:format>
    <dc:creator>
     <cc:Agent>
      <dc:title>Matplotlib v3.3.4, https://matplotlib.org/</dc:title>
     </cc:Agent>
    </dc:creator>
   </cc:Work>
  </rdf:RDF>
 </metadata>
 <defs>
  <style type="text/css">*{stroke-linecap:butt;stroke-linejoin:round;}</style>
 </defs>
 <g id="figure_1">
  <g id="patch_1">
   <path d="M 0 774.5877 
L 1322.785595 774.5877 
L 1322.785595 0 
L 0 0 
z
" style="fill:#f0f0f0;"/>
  </g>
  <g id="axes_1">
   <g id="patch_2">
    <path d="M 57.68175 728.35845 
L 1310.48175 728.35845 
L 1310.48175 28.51845 
L 57.68175 28.51845 
z
" style="fill:#f0f0f0;"/>
   </g>
   <g id="matplotlib.axis_1">
    <g id="xtick_1">
     <g id="line2d_1">
      <path clip-path="url(#pe05fe246aa)" d="M 184.930235 728.35845 
L 184.930235 28.51845 
" style="fill:none;stroke:#cbcbcb;"/>
     </g>
     <g id="line2d_2"/>
     <g id="text_1">
      <!-- 2 -->
      <g transform="translate(188.241485 739.49345)rotate(-90)scale(0.12 -0.12)">
       <defs>
        <path d="M 19.1875 8.296875 
L 53.609375 8.296875 
L 53.609375 0 
L 7.328125 0 
L 7.328125 8.296875 
Q 12.9375 14.109375 22.625 23.890625 
Q 32.328125 33.6875 34.8125 36.53125 
Q 39.546875 41.84375 41.421875 45.53125 
Q 43.3125 49.21875 43.3125 52.78125 
Q 43.3125 58.59375 39.234375 62.25 
Q 35.15625 65.921875 28.609375 65.921875 
Q 23.96875 65.921875 18.8125 64.3125 
Q 13.671875 62.703125 7.8125 59.421875 
L 7.8125 69.390625 
Q 13.765625 71.78125 18.9375 73 
Q 24.125 74.21875 28.421875 74.21875 
Q 39.75 74.21875 46.484375 68.546875 
Q 53.21875 62.890625 53.21875 53.421875 
Q 53.21875 48.921875 51.53125 44.890625 
Q 49.859375 40.875 45.40625 35.40625 
Q 44.1875 33.984375 37.640625 27.21875 
Q 31.109375 20.453125 19.1875 8.296875 
z
" id="DejaVuSans-50"/>
       </defs>
       <use xlink:href="#DejaVuSans-50"/>
      </g>
     </g>
    </g>
    <g id="xtick_2">
     <g id="line2d_3">
      <path clip-path="url(#pe05fe246aa)" d="M 325.536295 728.35845 
L 325.536295 28.51845 
" style="fill:none;stroke:#cbcbcb;"/>
     </g>
     <g id="line2d_4"/>
     <g id="text_2">
      <!-- 3 -->
      <g transform="translate(328.847545 739.49345)rotate(-90)scale(0.12 -0.12)">
       <defs>
        <path d="M 40.578125 39.3125 
Q 47.65625 37.796875 51.625 33 
Q 55.609375 28.21875 55.609375 21.1875 
Q 55.609375 10.40625 48.1875 4.484375 
Q 40.765625 -1.421875 27.09375 -1.421875 
Q 22.515625 -1.421875 17.65625 -0.515625 
Q 12.796875 0.390625 7.625 2.203125 
L 7.625 11.71875 
Q 11.71875 9.328125 16.59375 8.109375 
Q 21.484375 6.890625 26.8125 6.890625 
Q 36.078125 6.890625 40.9375 10.546875 
Q 45.796875 14.203125 45.796875 21.1875 
Q 45.796875 27.640625 41.28125 31.265625 
Q 36.765625 34.90625 28.71875 34.90625 
L 20.21875 34.90625 
L 20.21875 43.015625 
L 29.109375 43.015625 
Q 36.375 43.015625 40.234375 45.921875 
Q 44.09375 48.828125 44.09375 54.296875 
Q 44.09375 59.90625 40.109375 62.90625 
Q 36.140625 65.921875 28.71875 65.921875 
Q 24.65625 65.921875 20.015625 65.03125 
Q 15.375 64.15625 9.8125 62.3125 
L 9.8125 71.09375 
Q 15.4375 72.65625 20.34375 73.4375 
Q 25.25 74.21875 29.59375 74.21875 
Q 40.828125 74.21875 47.359375 69.109375 
Q 53.90625 64.015625 53.90625 55.328125 
Q 53.90625 49.265625 50.4375 45.09375 
Q 46.96875 40.921875 40.578125 39.3125 
z
" id="DejaVuSans-51"/>
       </defs>
       <use xlink:href="#DejaVuSans-51"/>
      </g>
     </g>
    </g>
    <g id="xtick_3">
     <g id="line2d_5">
      <path clip-path="url(#pe05fe246aa)" d="M 466.142356 728.35845 
L 466.142356 28.51845 
" style="fill:none;stroke:#cbcbcb;"/>
     </g>
     <g id="line2d_6"/>
     <g id="text_3">
      <!-- 4 -->
      <g transform="translate(469.453606 739.49345)rotate(-90)scale(0.12 -0.12)">
       <defs>
        <path d="M 37.796875 64.3125 
L 12.890625 25.390625 
L 37.796875 25.390625 
z
M 35.203125 72.90625 
L 47.609375 72.90625 
L 47.609375 25.390625 
L 58.015625 25.390625 
L 58.015625 17.1875 
L 47.609375 17.1875 
L 47.609375 0 
L 37.796875 0 
L 37.796875 17.1875 
L 4.890625 17.1875 
L 4.890625 26.703125 
z
" id="DejaVuSans-52"/>
       </defs>
       <use xlink:href="#DejaVuSans-52"/>
      </g>
     </g>
    </g>
    <g id="xtick_4">
     <g id="line2d_7">
      <path clip-path="url(#pe05fe246aa)" d="M 606.748417 728.35845 
L 606.748417 28.51845 
" style="fill:none;stroke:#cbcbcb;"/>
     </g>
     <g id="line2d_8"/>
     <g id="text_4">
      <!-- 5 -->
      <g transform="translate(610.059667 739.49345)rotate(-90)scale(0.12 -0.12)">
       <defs>
        <path d="M 10.796875 72.90625 
L 49.515625 72.90625 
L 49.515625 64.59375 
L 19.828125 64.59375 
L 19.828125 46.734375 
Q 21.96875 47.46875 24.109375 47.828125 
Q 26.265625 48.1875 28.421875 48.1875 
Q 40.625 48.1875 47.75 41.5 
Q 54.890625 34.8125 54.890625 23.390625 
Q 54.890625 11.625 47.5625 5.09375 
Q 40.234375 -1.421875 26.90625 -1.421875 
Q 22.3125 -1.421875 17.546875 -0.640625 
Q 12.796875 0.140625 7.71875 1.703125 
L 7.71875 11.625 
Q 12.109375 9.234375 16.796875 8.0625 
Q 21.484375 6.890625 26.703125 6.890625 
Q 35.15625 6.890625 40.078125 11.328125 
Q 45.015625 15.765625 45.015625 23.390625 
Q 45.015625 31 40.078125 35.4375 
Q 35.15625 39.890625 26.703125 39.890625 
Q 22.75 39.890625 18.8125 39.015625 
Q 14.890625 38.140625 10.796875 36.28125 
z
" id="DejaVuSans-53"/>
       </defs>
       <use xlink:href="#DejaVuSans-53"/>
      </g>
     </g>
    </g>
    <g id="xtick_5">
     <g id="line2d_9">
      <path clip-path="url(#pe05fe246aa)" d="M 747.354477 728.35845 
L 747.354477 28.51845 
" style="fill:none;stroke:#cbcbcb;"/>
     </g>
     <g id="line2d_10"/>
     <g id="text_5">
      <!-- 6 -->
      <g transform="translate(750.665727 739.49345)rotate(-90)scale(0.12 -0.12)">
       <defs>
        <path d="M 33.015625 40.375 
Q 26.375 40.375 22.484375 35.828125 
Q 18.609375 31.296875 18.609375 23.390625 
Q 18.609375 15.53125 22.484375 10.953125 
Q 26.375 6.390625 33.015625 6.390625 
Q 39.65625 6.390625 43.53125 10.953125 
Q 47.40625 15.53125 47.40625 23.390625 
Q 47.40625 31.296875 43.53125 35.828125 
Q 39.65625 40.375 33.015625 40.375 
z
M 52.59375 71.296875 
L 52.59375 62.3125 
Q 48.875 64.0625 45.09375 64.984375 
Q 41.3125 65.921875 37.59375 65.921875 
Q 27.828125 65.921875 22.671875 59.328125 
Q 17.53125 52.734375 16.796875 39.40625 
Q 19.671875 43.65625 24.015625 45.921875 
Q 28.375 48.1875 33.59375 48.1875 
Q 44.578125 48.1875 50.953125 41.515625 
Q 57.328125 34.859375 57.328125 23.390625 
Q 57.328125 12.15625 50.6875 5.359375 
Q 44.046875 -1.421875 33.015625 -1.421875 
Q 20.359375 -1.421875 13.671875 8.265625 
Q 6.984375 17.96875 6.984375 36.375 
Q 6.984375 53.65625 15.1875 63.9375 
Q 23.390625 74.21875 37.203125 74.21875 
Q 40.921875 74.21875 44.703125 73.484375 
Q 48.484375 72.75 52.59375 71.296875 
z
" id="DejaVuSans-54"/>
       </defs>
       <use xlink:href="#DejaVuSans-54"/>
      </g>
     </g>
    </g>
    <g id="xtick_6">
     <g id="line2d_11">
      <path clip-path="url(#pe05fe246aa)" d="M 887.960538 728.35845 
L 887.960538 28.51845 
" style="fill:none;stroke:#cbcbcb;"/>
     </g>
     <g id="line2d_12"/>
     <g id="text_6">
      <!-- 7 -->
      <g transform="translate(891.271788 739.49345)rotate(-90)scale(0.12 -0.12)">
       <defs>
        <path d="M 8.203125 72.90625 
L 55.078125 72.90625 
L 55.078125 68.703125 
L 28.609375 0 
L 18.3125 0 
L 43.21875 64.59375 
L 8.203125 64.59375 
z
" id="DejaVuSans-55"/>
       </defs>
       <use xlink:href="#DejaVuSans-55"/>
      </g>
     </g>
    </g>
    <g id="xtick_7">
     <g id="line2d_13">
      <path clip-path="url(#pe05fe246aa)" d="M 1028.566598 728.35845 
L 1028.566598 28.51845 
" style="fill:none;stroke:#cbcbcb;"/>
     </g>
     <g id="line2d_14"/>
     <g id="text_7">
      <!-- 8 -->
      <g transform="translate(1031.877848 739.49345)rotate(-90)scale(0.12 -0.12)">
       <defs>
        <path d="M 31.78125 34.625 
Q 24.75 34.625 20.71875 30.859375 
Q 16.703125 27.09375 16.703125 20.515625 
Q 16.703125 13.921875 20.71875 10.15625 
Q 24.75 6.390625 31.78125 6.390625 
Q 38.8125 6.390625 42.859375 10.171875 
Q 46.921875 13.96875 46.921875 20.515625 
Q 46.921875 27.09375 42.890625 30.859375 
Q 38.875 34.625 31.78125 34.625 
z
M 21.921875 38.8125 
Q 15.578125 40.375 12.03125 44.71875 
Q 8.5 49.078125 8.5 55.328125 
Q 8.5 64.0625 14.71875 69.140625 
Q 20.953125 74.21875 31.78125 74.21875 
Q 42.671875 74.21875 48.875 69.140625 
Q 55.078125 64.0625 55.078125 55.328125 
Q 55.078125 49.078125 51.53125 44.71875 
Q 48 40.375 41.703125 38.8125 
Q 48.828125 37.15625 52.796875 32.3125 
Q 56.78125 27.484375 56.78125 20.515625 
Q 56.78125 9.90625 50.3125 4.234375 
Q 43.84375 -1.421875 31.78125 -1.421875 
Q 19.734375 -1.421875 13.25 4.234375 
Q 6.78125 9.90625 6.78125 20.515625 
Q 6.78125 27.484375 10.78125 32.3125 
Q 14.796875 37.15625 21.921875 38.8125 
z
M 18.3125 54.390625 
Q 18.3125 48.734375 21.84375 45.5625 
Q 25.390625 42.390625 31.78125 42.390625 
Q 38.140625 42.390625 41.71875 45.5625 
Q 45.3125 48.734375 45.3125 54.390625 
Q 45.3125 60.0625 41.71875 63.234375 
Q 38.140625 66.40625 31.78125 66.40625 
Q 25.390625 66.40625 21.84375 63.234375 
Q 18.3125 60.0625 18.3125 54.390625 
z
" id="DejaVuSans-56"/>
       </defs>
       <use xlink:href="#DejaVuSans-56"/>
      </g>
     </g>
    </g>
    <g id="xtick_8">
     <g id="line2d_15">
      <path clip-path="url(#pe05fe246aa)" d="M 1169.172659 728.35845 
L 1169.172659 28.51845 
" style="fill:none;stroke:#cbcbcb;"/>
     </g>
     <g id="line2d_16"/>
     <g id="text_8">
      <!-- 9 -->
      <g transform="translate(1172.483909 739.49345)rotate(-90)scale(0.12 -0.12)">
       <defs>
        <path d="M 10.984375 1.515625 
L 10.984375 10.5 
Q 14.703125 8.734375 18.5 7.8125 
Q 22.3125 6.890625 25.984375 6.890625 
Q 35.75 6.890625 40.890625 13.453125 
Q 46.046875 20.015625 46.78125 33.40625 
Q 43.953125 29.203125 39.59375 26.953125 
Q 35.25 24.703125 29.984375 24.703125 
Q 19.046875 24.703125 12.671875 31.3125 
Q 6.296875 37.9375 6.296875 49.421875 
Q 6.296875 60.640625 12.9375 67.421875 
Q 19.578125 74.21875 30.609375 74.21875 
Q 43.265625 74.21875 49.921875 64.515625 
Q 56.59375 54.828125 56.59375 36.375 
Q 56.59375 19.140625 48.40625 8.859375 
Q 40.234375 -1.421875 26.421875 -1.421875 
Q 22.703125 -1.421875 18.890625 -0.6875 
Q 15.09375 0.046875 10.984375 1.515625 
z
M 30.609375 32.421875 
Q 37.25 32.421875 41.125 36.953125 
Q 45.015625 41.5 45.015625 49.421875 
Q 45.015625 57.28125 41.125 61.84375 
Q 37.25 66.40625 30.609375 66.40625 
Q 23.96875 66.40625 20.09375 61.84375 
Q 16.21875 57.28125 16.21875 49.421875 
Q 16.21875 41.5 20.09375 36.953125 
Q 23.96875 32.421875 30.609375 32.421875 
z
" id="DejaVuSans-57"/>
       </defs>
       <use xlink:href="#DejaVuSans-57"/>
      </g>
     </g>
    </g>
    <g id="xtick_9">
     <g id="line2d_17">
      <path clip-path="url(#pe05fe246aa)" d="M 1309.77872 728.35845 
L 1309.77872 28.51845 
" style="fill:none;stroke:#cbcbcb;"/>
     </g>
     <g id="line2d_18"/>
     <g id="text_9">
      <!-- 10 -->
      <g transform="translate(1313.08997 747.12845)rotate(-90)scale(0.12 -0.12)">
       <defs>
        <path d="M 12.40625 8.296875 
L 28.515625 8.296875 
L 28.515625 63.921875 
L 10.984375 60.40625 
L 10.984375 69.390625 
L 28.421875 72.90625 
L 38.28125 72.90625 
L 38.28125 8.296875 
L 54.390625 8.296875 
L 54.390625 0 
L 12.40625 0 
z
" id="DejaVuSans-49"/>
        <path d="M 31.78125 66.40625 
Q 24.171875 66.40625 20.328125 58.90625 
Q 16.5 51.421875 16.5 36.375 
Q 16.5 21.390625 20.328125 13.890625 
Q 24.171875 6.390625 31.78125 6.390625 
Q 39.453125 6.390625 43.28125 13.890625 
Q 47.125 21.390625 47.125 36.375 
Q 47.125 51.421875 43.28125 58.90625 
Q 39.453125 66.40625 31.78125 66.40625 
z
M 31.78125 74.21875 
Q 44.046875 74.21875 50.515625 64.515625 
Q 56.984375 54.828125 56.984375 36.375 
Q 56.984375 17.96875 50.515625 8.265625 
Q 44.046875 -1.421875 31.78125 -1.421875 
Q 19.53125 -1.421875 13.0625 8.265625 
Q 6.59375 17.96875 6.59375 36.375 
Q 6.59375 54.828125 13.0625 64.515625 
Q 19.53125 74.21875 31.78125 74.21875 
z
" id="DejaVuSans-48"/>
       </defs>
       <use xlink:href="#DejaVuSans-49"/>
       <use x="63.623047" xlink:href="#DejaVuSans-48"/>
      </g>
     </g>
    </g>
    <g id="text_10">
     <!-- IMDB Rating -->
     <g transform="translate(632.377125 763.893825)scale(0.168 -0.168)">
      <defs>
       <path d="M 9.8125 72.90625 
L 19.671875 72.90625 
L 19.671875 0 
L 9.8125 0 
z
" id="DejaVuSans-73"/>
       <path d="M 9.8125 72.90625 
L 24.515625 72.90625 
L 43.109375 23.296875 
L 61.8125 72.90625 
L 76.515625 72.90625 
L 76.515625 0 
L 66.890625 0 
L 66.890625 64.015625 
L 48.09375 14.015625 
L 38.1875 14.015625 
L 19.390625 64.015625 
L 19.390625 0 
L 9.8125 0 
z
" id="DejaVuSans-77"/>
       <path d="M 19.671875 64.796875 
L 19.671875 8.109375 
L 31.59375 8.109375 
Q 46.6875 8.109375 53.6875 14.9375 
Q 60.6875 21.78125 60.6875 36.53125 
Q 60.6875 51.171875 53.6875 57.984375 
Q 46.6875 64.796875 31.59375 64.796875 
z
M 9.8125 72.90625 
L 30.078125 72.90625 
Q 51.265625 72.90625 61.171875 64.09375 
Q 71.09375 55.28125 71.09375 36.53125 
Q 71.09375 17.671875 61.125 8.828125 
Q 51.171875 0 30.078125 0 
L 9.8125 0 
z
" id="DejaVuSans-68"/>
       <path d="M 19.671875 34.8125 
L 19.671875 8.109375 
L 35.5 8.109375 
Q 43.453125 8.109375 47.28125 11.40625 
Q 51.125 14.703125 51.125 21.484375 
Q 51.125 28.328125 47.28125 31.5625 
Q 43.453125 34.8125 35.5 34.8125 
z
M 19.671875 64.796875 
L 19.671875 42.828125 
L 34.28125 42.828125 
Q 41.5 42.828125 45.03125 45.53125 
Q 48.578125 48.25 48.578125 53.8125 
Q 48.578125 59.328125 45.03125 62.0625 
Q 41.5 64.796875 34.28125 64.796875 
z
M 9.8125 72.90625 
L 35.015625 72.90625 
Q 46.296875 72.90625 52.390625 68.21875 
Q 58.5 63.53125 58.5 54.890625 
Q 58.5 48.1875 55.375 44.234375 
Q 52.25 40.28125 46.1875 39.3125 
Q 53.46875 37.75 57.5 32.78125 
Q 61.53125 27.828125 61.53125 20.40625 
Q 61.53125 10.640625 54.890625 5.3125 
Q 48.25 0 35.984375 0 
L 9.8125 0 
z
" id="DejaVuSans-66"/>
       <path id="DejaVuSans-32"/>
       <path d="M 44.390625 34.1875 
Q 47.5625 33.109375 50.5625 29.59375 
Q 53.5625 26.078125 56.59375 19.921875 
L 66.609375 0 
L 56 0 
L 46.6875 18.703125 
Q 43.0625 26.03125 39.671875 28.421875 
Q 36.28125 30.8125 30.421875 30.8125 
L 19.671875 30.8125 
L 19.671875 0 
L 9.8125 0 
L 9.8125 72.90625 
L 32.078125 72.90625 
Q 44.578125 72.90625 50.734375 67.671875 
Q 56.890625 62.453125 56.890625 51.90625 
Q 56.890625 45.015625 53.6875 40.46875 
Q 50.484375 35.9375 44.390625 34.1875 
z
M 19.671875 64.796875 
L 19.671875 38.921875 
L 32.078125 38.921875 
Q 39.203125 38.921875 42.84375 42.21875 
Q 46.484375 45.515625 46.484375 51.90625 
Q 46.484375 58.296875 42.84375 61.546875 
Q 39.203125 64.796875 32.078125 64.796875 
z
" id="DejaVuSans-82"/>
       <path d="M 34.28125 27.484375 
Q 23.390625 27.484375 19.1875 25 
Q 14.984375 22.515625 14.984375 16.5 
Q 14.984375 11.71875 18.140625 8.90625 
Q 21.296875 6.109375 26.703125 6.109375 
Q 34.1875 6.109375 38.703125 11.40625 
Q 43.21875 16.703125 43.21875 25.484375 
L 43.21875 27.484375 
z
M 52.203125 31.203125 
L 52.203125 0 
L 43.21875 0 
L 43.21875 8.296875 
Q 40.140625 3.328125 35.546875 0.953125 
Q 30.953125 -1.421875 24.3125 -1.421875 
Q 15.921875 -1.421875 10.953125 3.296875 
Q 6 8.015625 6 15.921875 
Q 6 25.140625 12.171875 29.828125 
Q 18.359375 34.515625 30.609375 34.515625 
L 43.21875 34.515625 
L 43.21875 35.40625 
Q 43.21875 41.609375 39.140625 45 
Q 35.0625 48.390625 27.6875 48.390625 
Q 23 48.390625 18.546875 47.265625 
Q 14.109375 46.140625 10.015625 43.890625 
L 10.015625 52.203125 
Q 14.9375 54.109375 19.578125 55.046875 
Q 24.21875 56 28.609375 56 
Q 40.484375 56 46.34375 49.84375 
Q 52.203125 43.703125 52.203125 31.203125 
z
" id="DejaVuSans-97"/>
       <path d="M 18.3125 70.21875 
L 18.3125 54.6875 
L 36.8125 54.6875 
L 36.8125 47.703125 
L 18.3125 47.703125 
L 18.3125 18.015625 
Q 18.3125 11.328125 20.140625 9.421875 
Q 21.96875 7.515625 27.59375 7.515625 
L 36.8125 7.515625 
L 36.8125 0 
L 27.59375 0 
Q 17.1875 0 13.234375 3.875 
Q 9.28125 7.765625 9.28125 18.015625 
L 9.28125 47.703125 
L 2.6875 47.703125 
L 2.6875 54.6875 
L 9.28125 54.6875 
L 9.28125 70.21875 
z
" id="DejaVuSans-116"/>
       <path d="M 9.421875 54.6875 
L 18.40625 54.6875 
L 18.40625 0 
L 9.421875 0 
z
M 9.421875 75.984375 
L 18.40625 75.984375 
L 18.40625 64.59375 
L 9.421875 64.59375 
z
" id="DejaVuSans-105"/>
       <path d="M 54.890625 33.015625 
L 54.890625 0 
L 45.90625 0 
L 45.90625 32.71875 
Q 45.90625 40.484375 42.875 44.328125 
Q 39.84375 48.1875 33.796875 48.1875 
Q 26.515625 48.1875 22.3125 43.546875 
Q 18.109375 38.921875 18.109375 30.90625 
L 18.109375 0 
L 9.078125 0 
L 9.078125 54.6875 
L 18.109375 54.6875 
L 18.109375 46.1875 
Q 21.34375 51.125 25.703125 53.5625 
Q 30.078125 56 35.796875 56 
Q 45.21875 56 50.046875 50.171875 
Q 54.890625 44.34375 54.890625 33.015625 
z
" id="DejaVuSans-110"/>
       <path d="M 45.40625 27.984375 
Q 45.40625 37.75 41.375 43.109375 
Q 37.359375 48.484375 30.078125 48.484375 
Q 22.859375 48.484375 18.828125 43.109375 
Q 14.796875 37.75 14.796875 27.984375 
Q 14.796875 18.265625 18.828125 12.890625 
Q 22.859375 7.515625 30.078125 7.515625 
Q 37.359375 7.515625 41.375 12.890625 
Q 45.40625 18.265625 45.40625 27.984375 
z
M 54.390625 6.78125 
Q 54.390625 -7.171875 48.1875 -13.984375 
Q 42 -20.796875 29.203125 -20.796875 
Q 24.46875 -20.796875 20.265625 -20.09375 
Q 16.0625 -19.390625 12.109375 -17.921875 
L 12.109375 -9.1875 
Q 16.0625 -11.328125 19.921875 -12.34375 
Q 23.78125 -13.375 27.78125 -13.375 
Q 36.625 -13.375 41.015625 -8.765625 
Q 45.40625 -4.15625 45.40625 5.171875 
L 45.40625 9.625 
Q 42.625 4.78125 38.28125 2.390625 
Q 33.9375 0 27.875 0 
Q 17.828125 0 11.671875 7.65625 
Q 5.515625 15.328125 5.515625 27.984375 
Q 5.515625 40.671875 11.671875 48.328125 
Q 17.828125 56 27.875 56 
Q 33.9375 56 38.28125 53.609375 
Q 42.625 51.21875 45.40625 46.390625 
L 45.40625 54.6875 
L 54.390625 54.6875 
z
" id="DejaVuSans-103"/>
      </defs>
      <use xlink:href="#DejaVuSans-73"/>
      <use x="29.492188" xlink:href="#DejaVuSans-77"/>
      <use x="115.771484" xlink:href="#DejaVuSans-68"/>
      <use x="192.773438" xlink:href="#DejaVuSans-66"/>
      <use x="261.376953" xlink:href="#DejaVuSans-32"/>
      <use x="293.164062" xlink:href="#DejaVuSans-82"/>
      <use x="360.396484" xlink:href="#DejaVuSans-97"/>
      <use x="421.675781" xlink:href="#DejaVuSans-116"/>
      <use x="460.884766" xlink:href="#DejaVuSans-105"/>
      <use x="488.667969" xlink:href="#DejaVuSans-110"/>
      <use x="552.046875" xlink:href="#DejaVuSans-103"/>
     </g>
    </g>
   </g>
   <g id="matplotlib.axis_2">
    <g id="ytick_1">
     <g id="line2d_19">
      <path clip-path="url(#pe05fe246aa)" d="M 57.68175 728.35845 
L 1310.48175 728.35845 
" style="fill:none;stroke:#cbcbcb;"/>
     </g>
     <g id="line2d_20"/>
     <g id="text_11">
      <!-- 0 -->
      <g transform="translate(45.27425 733.677356)scale(0.14 -0.14)">
       <use xlink:href="#DejaVuSans-48"/>
      </g>
     </g>
    </g>
    <g id="ytick_2">
     <g id="line2d_21">
      <path clip-path="url(#pe05fe246aa)" d="M 57.68175 598.179879 
L 1310.48175 598.179879 
" style="fill:none;stroke:#cbcbcb;"/>
     </g>
     <g id="line2d_22"/>
     <g id="text_12">
      <!-- 50 -->
      <g transform="translate(36.36675 603.498785)scale(0.14 -0.14)">
       <use xlink:href="#DejaVuSans-53"/>
       <use x="63.623047" xlink:href="#DejaVuSans-48"/>
      </g>
     </g>
    </g>
    <g id="ytick_3">
     <g id="line2d_23">
      <path clip-path="url(#pe05fe246aa)" d="M 57.68175 468.001307 
L 1310.48175 468.001307 
" style="fill:none;stroke:#cbcbcb;"/>
     </g>
     <g id="line2d_24"/>
     <g id="text_13">
      <!-- 100 -->
      <g transform="translate(27.45925 473.320213)scale(0.14 -0.14)">
       <use xlink:href="#DejaVuSans-49"/>
       <use x="63.623047" xlink:href="#DejaVuSans-48"/>
       <use x="127.246094" xlink:href="#DejaVuSans-48"/>
      </g>
     </g>
    </g>
    <g id="ytick_4">
     <g id="line2d_25">
      <path clip-path="url(#pe05fe246aa)" d="M 57.68175 337.822736 
L 1310.48175 337.822736 
" style="fill:none;stroke:#cbcbcb;"/>
     </g>
     <g id="line2d_26"/>
     <g id="text_14">
      <!-- 150 -->
      <g transform="translate(27.45925 343.141642)scale(0.14 -0.14)">
       <use xlink:href="#DejaVuSans-49"/>
       <use x="63.623047" xlink:href="#DejaVuSans-53"/>
       <use x="127.246094" xlink:href="#DejaVuSans-48"/>
      </g>
     </g>
    </g>
    <g id="ytick_5">
     <g id="line2d_27">
      <path clip-path="url(#pe05fe246aa)" d="M 57.68175 207.644164 
L 1310.48175 207.644164 
" style="fill:none;stroke:#cbcbcb;"/>
     </g>
     <g id="line2d_28"/>
     <g id="text_15">
      <!-- 200 -->
      <g transform="translate(27.45925 212.963071)scale(0.14 -0.14)">
       <use xlink:href="#DejaVuSans-50"/>
       <use x="63.623047" xlink:href="#DejaVuSans-48"/>
       <use x="127.246094" xlink:href="#DejaVuSans-48"/>
      </g>
     </g>
    </g>
    <g id="ytick_6">
     <g id="line2d_29">
      <path clip-path="url(#pe05fe246aa)" d="M 57.68175 77.465593 
L 1310.48175 77.465593 
" style="fill:none;stroke:#cbcbcb;"/>
     </g>
     <g id="line2d_30"/>
     <g id="text_16">
      <!-- 250 -->
      <g transform="translate(27.45925 82.784499)scale(0.14 -0.14)">
       <use xlink:href="#DejaVuSans-50"/>
       <use x="63.623047" xlink:href="#DejaVuSans-53"/>
       <use x="127.246094" xlink:href="#DejaVuSans-48"/>
      </g>
     </g>
    </g>
    <g id="text_17">
     <!-- Count -->
     <g transform="translate(19.965375 403.383825)rotate(-90)scale(0.168 -0.168)">
      <defs>
       <path d="M 64.40625 67.28125 
L 64.40625 56.890625 
Q 59.421875 61.53125 53.78125 63.8125 
Q 48.140625 66.109375 41.796875 66.109375 
Q 29.296875 66.109375 22.65625 58.46875 
Q 16.015625 50.828125 16.015625 36.375 
Q 16.015625 21.96875 22.65625 14.328125 
Q 29.296875 6.6875 41.796875 6.6875 
Q 48.140625 6.6875 53.78125 8.984375 
Q 59.421875 11.28125 64.40625 15.921875 
L 64.40625 5.609375 
Q 59.234375 2.09375 53.4375 0.328125 
Q 47.65625 -1.421875 41.21875 -1.421875 
Q 24.65625 -1.421875 15.125 8.703125 
Q 5.609375 18.84375 5.609375 36.375 
Q 5.609375 53.953125 15.125 64.078125 
Q 24.65625 74.21875 41.21875 74.21875 
Q 47.75 74.21875 53.53125 72.484375 
Q 59.328125 70.75 64.40625 67.28125 
z
" id="DejaVuSans-67"/>
       <path d="M 30.609375 48.390625 
Q 23.390625 48.390625 19.1875 42.75 
Q 14.984375 37.109375 14.984375 27.296875 
Q 14.984375 17.484375 19.15625 11.84375 
Q 23.34375 6.203125 30.609375 6.203125 
Q 37.796875 6.203125 41.984375 11.859375 
Q 46.1875 17.53125 46.1875 27.296875 
Q 46.1875 37.015625 41.984375 42.703125 
Q 37.796875 48.390625 30.609375 48.390625 
z
M 30.609375 56 
Q 42.328125 56 49.015625 48.375 
Q 55.71875 40.765625 55.71875 27.296875 
Q 55.71875 13.875 49.015625 6.21875 
Q 42.328125 -1.421875 30.609375 -1.421875 
Q 18.84375 -1.421875 12.171875 6.21875 
Q 5.515625 13.875 5.515625 27.296875 
Q 5.515625 40.765625 12.171875 48.375 
Q 18.84375 56 30.609375 56 
z
" id="DejaVuSans-111"/>
       <path d="M 8.5 21.578125 
L 8.5 54.6875 
L 17.484375 54.6875 
L 17.484375 21.921875 
Q 17.484375 14.15625 20.5 10.265625 
Q 23.53125 6.390625 29.59375 6.390625 
Q 36.859375 6.390625 41.078125 11.03125 
Q 45.3125 15.671875 45.3125 23.6875 
L 45.3125 54.6875 
L 54.296875 54.6875 
L 54.296875 0 
L 45.3125 0 
L 45.3125 8.40625 
Q 42.046875 3.421875 37.71875 1 
Q 33.40625 -1.421875 27.6875 -1.421875 
Q 18.265625 -1.421875 13.375 4.4375 
Q 8.5 10.296875 8.5 21.578125 
z
M 31.109375 56 
z
" id="DejaVuSans-117"/>
      </defs>
      <use xlink:href="#DejaVuSans-67"/>
      <use x="69.824219" xlink:href="#DejaVuSans-111"/>
      <use x="131.005859" xlink:href="#DejaVuSans-117"/>
      <use x="194.384766" xlink:href="#DejaVuSans-110"/>
      <use x="257.763672" xlink:href="#DejaVuSans-116"/>
     </g>
    </g>
   </g>
   <g id="patch_3">
    <path clip-path="url(#pe05fe246aa)" d="M 114.627205 728.35845 
L 137.870247 728.35845 
L 137.870247 723.151307 
L 114.627205 723.151307 
z
" style="fill:#008fd5;opacity:0.4;"/>
   </g>
   <g id="patch_4">
    <path clip-path="url(#pe05fe246aa)" d="M 137.870247 728.35845 
L 161.11329 728.35845 
L 161.11329 728.35845 
L 137.870247 728.35845 
z
" style="fill:#008fd5;opacity:0.4;"/>
   </g>
   <g id="patch_5">
    <path clip-path="url(#pe05fe246aa)" d="M 161.11329 728.35845 
L 184.356333 728.35845 
L 184.356333 723.151307 
L 161.11329 723.151307 
z
" style="fill:#008fd5;opacity:0.4;"/>
   </g>
   <g id="patch_6">
    <path clip-path="url(#pe05fe246aa)" d="M 184.356333 728.35845 
L 207.599375 728.35845 
L 207.599375 715.340593 
L 184.356333 715.340593 
z
" style="fill:#008fd5;opacity:0.4;"/>
   </g>
   <g id="patch_7">
    <path clip-path="url(#pe05fe246aa)" d="M 207.599375 728.35845 
L 230.842418 728.35845 
L 230.842418 717.944164 
L 207.599375 717.944164 
z
" style="fill:#008fd5;opacity:0.4;"/>
   </g>
   <g id="patch_8">
    <path clip-path="url(#pe05fe246aa)" d="M 230.842418 728.35845 
L 254.085461 728.35845 
L 254.085461 725.754879 
L 230.842418 725.754879 
z
" style="fill:#008fd5;opacity:0.4;"/>
   </g>
   <g id="patch_9">
    <path clip-path="url(#pe05fe246aa)" d="M 254.085461 728.35845 
L 277.328503 728.35845 
L 277.328503 725.754879 
L 254.085461 725.754879 
z
" style="fill:#008fd5;opacity:0.4;"/>
   </g>
   <g id="patch_10">
    <path clip-path="url(#pe05fe246aa)" d="M 277.328503 728.35845 
L 300.571546 728.35845 
L 300.571546 720.547736 
L 277.328503 720.547736 
z
" style="fill:#008fd5;opacity:0.4;"/>
   </g>
   <g id="patch_11">
    <path clip-path="url(#pe05fe246aa)" d="M 300.571546 728.35845 
L 323.814589 728.35845 
L 323.814589 725.754879 
L 300.571546 725.754879 
z
" style="fill:#008fd5;opacity:0.4;"/>
   </g>
   <g id="patch_12">
    <path clip-path="url(#pe05fe246aa)" d="M 323.814589 728.35845 
L 347.057631 728.35845 
L 347.057631 717.944164 
L 323.814589 717.944164 
z
" style="fill:#008fd5;opacity:0.4;"/>
   </g>
   <g id="patch_13">
    <path clip-path="url(#pe05fe246aa)" d="M 347.057631 728.35845 
L 370.300674 728.35845 
L 370.300674 717.944164 
L 347.057631 717.944164 
z
" style="fill:#008fd5;opacity:0.4;"/>
   </g>
   <g id="patch_14">
    <path clip-path="url(#pe05fe246aa)" d="M 370.300674 728.35845 
L 393.543717 728.35845 
L 393.543717 717.944164 
L 370.300674 717.944164 
z
" style="fill:#008fd5;opacity:0.4;"/>
   </g>
   <g id="patch_15">
    <path clip-path="url(#pe05fe246aa)" d="M 393.543717 728.35845 
L 416.786759 728.35845 
L 416.786759 704.926307 
L 393.543717 704.926307 
z
" style="fill:#008fd5;opacity:0.4;"/>
   </g>
   <g id="patch_16">
    <path clip-path="url(#pe05fe246aa)" d="M 416.786759 728.35845 
L 440.029802 728.35845 
L 440.029802 704.926307 
L 416.786759 704.926307 
z
" style="fill:#008fd5;opacity:0.4;"/>
   </g>
   <g id="patch_17">
    <path clip-path="url(#pe05fe246aa)" d="M 440.029802 728.35845 
L 463.272845 728.35845 
L 463.272845 723.151307 
L 440.029802 723.151307 
z
" style="fill:#008fd5;opacity:0.4;"/>
   </g>
   <g id="patch_18">
    <path clip-path="url(#pe05fe246aa)" d="M 463.272845 728.35845 
L 486.515887 728.35845 
L 486.515887 702.322736 
L 463.272845 702.322736 
z
" style="fill:#008fd5;opacity:0.4;"/>
   </g>
   <g id="patch_19">
    <path clip-path="url(#pe05fe246aa)" d="M 486.515887 728.35845 
L 509.75893 728.35845 
L 509.75893 676.287021 
L 486.515887 676.287021 
z
" style="fill:#008fd5;opacity:0.4;"/>
   </g>
   <g id="patch_20">
    <path clip-path="url(#pe05fe246aa)" d="M 509.75893 728.35845 
L 533.001973 728.35845 
L 533.001973 684.097736 
L 509.75893 684.097736 
z
" style="fill:#008fd5;opacity:0.4;"/>
   </g>
   <g id="patch_21">
    <path clip-path="url(#pe05fe246aa)" d="M 533.001973 728.35845 
L 556.245015 728.35845 
L 556.245015 655.45845 
L 533.001973 655.45845 
z
" style="fill:#008fd5;opacity:0.4;"/>
   </g>
   <g id="patch_22">
    <path clip-path="url(#pe05fe246aa)" d="M 556.245015 728.35845 
L 579.488058 728.35845 
L 579.488058 621.612021 
L 556.245015 621.612021 
z
" style="fill:#008fd5;opacity:0.4;"/>
   </g>
   <g id="patch_23">
    <path clip-path="url(#pe05fe246aa)" d="M 579.488058 728.35845 
L 602.731101 728.35845 
L 602.731101 655.45845 
L 579.488058 655.45845 
z
" style="fill:#008fd5;opacity:0.4;"/>
   </g>
   <g id="patch_24">
    <path clip-path="url(#pe05fe246aa)" d="M 602.731101 728.35845 
L 625.974143 728.35845 
L 625.974143 564.33345 
L 602.731101 564.33345 
z
" style="fill:#008fd5;opacity:0.4;"/>
   </g>
   <g id="patch_25">
    <path clip-path="url(#pe05fe246aa)" d="M 625.974143 728.35845 
L 649.217186 728.35845 
L 649.217186 486.226307 
L 625.974143 486.226307 
z
" style="fill:#008fd5;opacity:0.4;"/>
   </g>
   <g id="patch_26">
    <path clip-path="url(#pe05fe246aa)" d="M 649.217186 728.35845 
L 672.460229 728.35845 
L 672.460229 561.729879 
L 649.217186 561.729879 
z
" style="fill:#008fd5;opacity:0.4;"/>
   </g>
   <g id="patch_27">
    <path clip-path="url(#pe05fe246aa)" d="M 672.460229 728.35845 
L 695.703271 728.35845 
L 695.703271 322.201307 
L 672.460229 322.201307 
z
" style="fill:#008fd5;opacity:0.4;"/>
   </g>
   <g id="patch_28">
    <path clip-path="url(#pe05fe246aa)" d="M 695.703271 728.35845 
L 718.946314 728.35845 
L 718.946314 533.090593 
L 695.703271 533.090593 
z
" style="fill:#008fd5;opacity:0.4;"/>
   </g>
   <g id="patch_29">
    <path clip-path="url(#pe05fe246aa)" d="M 718.946314 728.35845 
L 742.189357 728.35845 
L 742.189357 220.662021 
L 718.946314 220.662021 
z
" style="fill:#008fd5;opacity:0.4;"/>
   </g>
   <g id="patch_30">
    <path clip-path="url(#pe05fe246aa)" d="M 742.189357 728.35845 
L 765.432399 728.35845 
L 765.432399 225.869164 
L 742.189357 225.869164 
z
" style="fill:#008fd5;opacity:0.4;"/>
   </g>
   <g id="patch_31">
    <path clip-path="url(#pe05fe246aa)" d="M 765.432399 728.35845 
L 788.675442 728.35845 
L 788.675442 384.687021 
L 765.432399 384.687021 
z
" style="fill:#008fd5;opacity:0.4;"/>
   </g>
   <g id="patch_32">
    <path clip-path="url(#pe05fe246aa)" d="M 788.675442 728.35845 
L 811.918485 728.35845 
L 811.918485 61.844164 
L 788.675442 61.844164 
z
" style="fill:#008fd5;opacity:0.4;"/>
   </g>
   <g id="patch_33">
    <path clip-path="url(#pe05fe246aa)" d="M 811.918485 728.35845 
L 835.161527 728.35845 
L 835.161527 72.25845 
L 811.918485 72.25845 
z
" style="fill:#008fd5;opacity:0.4;"/>
   </g>
   <g id="patch_34">
    <path clip-path="url(#pe05fe246aa)" d="M 835.161527 728.35845 
L 858.40457 728.35845 
L 858.40457 363.85845 
L 835.161527 363.85845 
z
" style="fill:#008fd5;opacity:0.4;"/>
   </g>
   <g id="patch_35">
    <path clip-path="url(#pe05fe246aa)" d="M 858.40457 728.35845 
L 881.647613 728.35845 
L 881.647613 168.590593 
L 858.40457 168.590593 
z
" style="fill:#008fd5;opacity:0.4;"/>
   </g>
   <g id="patch_36">
    <path clip-path="url(#pe05fe246aa)" d="M 881.647613 728.35845 
L 904.890655 728.35845 
L 904.890655 108.70845 
L 881.647613 108.70845 
z
" style="fill:#008fd5;opacity:0.4;"/>
   </g>
   <g id="patch_37">
    <path clip-path="url(#pe05fe246aa)" d="M 904.890655 728.35845 
L 928.133698 728.35845 
L 928.133698 470.604879 
L 904.890655 470.604879 
z
" style="fill:#008fd5;opacity:0.4;"/>
   </g>
   <g id="patch_38">
    <path clip-path="url(#pe05fe246aa)" d="M 928.133698 728.35845 
L 951.376741 728.35845 
L 951.376741 251.904879 
L 928.133698 251.904879 
z
" style="fill:#008fd5;opacity:0.4;"/>
   </g>
   <g id="patch_39">
    <path clip-path="url(#pe05fe246aa)" d="M 951.376741 728.35845 
L 974.619783 728.35845 
L 974.619783 298.769164 
L 951.376741 298.769164 
z
" style="fill:#008fd5;opacity:0.4;"/>
   </g>
   <g id="patch_40">
    <path clip-path="url(#pe05fe246aa)" d="M 974.619783 728.35845 
L 997.862826 728.35845 
L 997.862826 574.747736 
L 974.619783 574.747736 
z
" style="fill:#008fd5;opacity:0.4;"/>
   </g>
   <g id="patch_41">
    <path clip-path="url(#pe05fe246aa)" d="M 997.862826 728.35845 
L 1021.105869 728.35845 
L 1021.105869 483.622736 
L 997.862826 483.622736 
z
" style="fill:#008fd5;opacity:0.4;"/>
   </g>
   <g id="patch_42">
    <path clip-path="url(#pe05fe246aa)" d="M 1021.105869 728.35845 
L 1044.348911 728.35845 
L 1044.348911 504.451307 
L 1021.105869 504.451307 
z
" style="fill:#008fd5;opacity:0.4;"/>
   </g>
   <g id="patch_43">
    <path clip-path="url(#pe05fe246aa)" d="M 1044.348911 728.35845 
L 1067.591954 728.35845 
L 1067.591954 686.701307 
L 1044.348911 686.701307 
z
" style="fill:#008fd5;opacity:0.4;"/>
   </g>
   <g id="patch_44">
    <path clip-path="url(#pe05fe246aa)" d="M 1067.591954 728.35845 
L 1090.834997 728.35845 
L 1090.834997 686.701307 
L 1067.591954 686.701307 
z
" style="fill:#008fd5;opacity:0.4;"/>
   </g>
   <g id="patch_45">
    <path clip-path="url(#pe05fe246aa)" d="M 1090.834997 728.35845 
L 1114.078039 728.35845 
L 1114.078039 694.512021 
L 1090.834997 694.512021 
z
" style="fill:#008fd5;opacity:0.4;"/>
   </g>
   <g id="patch_46">
    <path clip-path="url(#pe05fe246aa)" d="M 1114.078039 728.35845 
L 1137.321082 728.35845 
L 1137.321082 725.754879 
L 1114.078039 725.754879 
z
" style="fill:#008fd5;opacity:0.4;"/>
   </g>
   <g id="patch_47">
    <path clip-path="url(#pe05fe246aa)" d="M 1137.321082 728.35845 
L 1160.564125 728.35845 
L 1160.564125 720.547736 
L 1137.321082 720.547736 
z
" style="fill:#008fd5;opacity:0.4;"/>
   </g>
   <g id="patch_48">
    <path clip-path="url(#pe05fe246aa)" d="M 1160.564125 728.35845 
L 1183.807167 728.35845 
L 1183.807167 723.151307 
L 1160.564125 723.151307 
z
" style="fill:#008fd5;opacity:0.4;"/>
   </g>
   <g id="patch_49">
    <path clip-path="url(#pe05fe246aa)" d="M 1183.807167 728.35845 
L 1207.05021 728.35845 
L 1207.05021 728.35845 
L 1183.807167 728.35845 
z
" style="fill:#008fd5;opacity:0.4;"/>
   </g>
   <g id="patch_50">
    <path clip-path="url(#pe05fe246aa)" d="M 1207.05021 728.35845 
L 1230.293253 728.35845 
L 1230.293253 728.35845 
L 1207.05021 728.35845 
z
" style="fill:#008fd5;opacity:0.4;"/>
   </g>
   <g id="patch_51">
    <path clip-path="url(#pe05fe246aa)" d="M 1230.293253 728.35845 
L 1253.536295 728.35845 
L 1253.536295 725.754879 
L 1230.293253 725.754879 
z
" style="fill:#008fd5;opacity:0.4;"/>
   </g>
   <g id="patch_52">
    <path d="M 57.68175 728.35845 
L 57.68175 28.51845 
" style="fill:none;stroke:#f0f0f0;stroke-linecap:square;stroke-linejoin:miter;stroke-width:3;"/>
   </g>
   <g id="patch_53">
    <path d="M 1310.48175 728.35845 
L 1310.48175 28.51845 
" style="fill:none;stroke:#f0f0f0;stroke-linecap:square;stroke-linejoin:miter;stroke-width:3;"/>
   </g>
   <g id="patch_54">
    <path d="M 57.68175 728.35845 
L 1310.48175 728.35845 
" style="fill:none;stroke:#f0f0f0;stroke-linecap:square;stroke-linejoin:miter;stroke-width:3;"/>
   </g>
   <g id="patch_55">
    <path d="M 57.68175 28.51845 
L 1310.48175 28.51845 
" style="fill:none;stroke:#f0f0f0;stroke-linecap:square;stroke-linejoin:miter;stroke-width:3;"/>
   </g>
   <g id="text_18">
    <!-- Movie Rating Count -->
    <g transform="translate(585.412725 22.51845)scale(0.2016 -0.2016)">
     <defs>
      <path d="M 2.984375 54.6875 
L 12.5 54.6875 
L 29.59375 8.796875 
L 46.6875 54.6875 
L 56.203125 54.6875 
L 35.6875 0 
L 23.484375 0 
z
" id="DejaVuSans-118"/>
      <path d="M 56.203125 29.59375 
L 56.203125 25.203125 
L 14.890625 25.203125 
Q 15.484375 15.921875 20.484375 11.0625 
Q 25.484375 6.203125 34.421875 6.203125 
Q 39.59375 6.203125 44.453125 7.46875 
Q 49.3125 8.734375 54.109375 11.28125 
L 54.109375 2.78125 
Q 49.265625 0.734375 44.1875 -0.34375 
Q 39.109375 -1.421875 33.890625 -1.421875 
Q 20.796875 -1.421875 13.15625 6.1875 
Q 5.515625 13.8125 5.515625 26.8125 
Q 5.515625 40.234375 12.765625 48.109375 
Q 20.015625 56 32.328125 56 
Q 43.359375 56 49.78125 48.890625 
Q 56.203125 41.796875 56.203125 29.59375 
z
M 47.21875 32.234375 
Q 47.125 39.59375 43.09375 43.984375 
Q 39.0625 48.390625 32.421875 48.390625 
Q 24.90625 48.390625 20.390625 44.140625 
Q 15.875 39.890625 15.1875 32.171875 
z
" id="DejaVuSans-101"/>
     </defs>
     <use xlink:href="#DejaVuSans-77"/>
     <use x="86.279297" xlink:href="#DejaVuSans-111"/>
     <use x="147.460938" xlink:href="#DejaVuSans-118"/>
     <use x="206.640625" xlink:href="#DejaVuSans-105"/>
     <use x="234.423828" xlink:href="#DejaVuSans-101"/>
     <use x="295.947266" xlink:href="#DejaVuSans-32"/>
     <use x="327.734375" xlink:href="#DejaVuSans-82"/>
     <use x="394.966797" xlink:href="#DejaVuSans-97"/>
     <use x="456.246094" xlink:href="#DejaVuSans-116"/>
     <use x="495.455078" xlink:href="#DejaVuSans-105"/>
     <use x="523.238281" xlink:href="#DejaVuSans-110"/>
     <use x="586.617188" xlink:href="#DejaVuSans-103"/>
     <use x="650.09375" xlink:href="#DejaVuSans-32"/>
     <use x="681.880859" xlink:href="#DejaVuSans-67"/>
     <use x="751.705078" xlink:href="#DejaVuSans-111"/>
     <use x="812.886719" xlink:href="#DejaVuSans-117"/>
     <use x="876.265625" xlink:href="#DejaVuSans-110"/>
     <use x="939.644531" xlink:href="#DejaVuSans-116"/>
    </g>
   </g>
  </g>
 </g>
 <defs>
  <clipPath id="pe05fe246aa">
   <rect height="699.84" width="1252.8" x="57.68175" y="28.51845"/>
  </clipPath>
 </defs>
</svg>
